<svg width="80" height="100" viewBox="0 0 80 100" fill="none" xmlns="http://www.w3.org/2000/svg">
<g clip-path="url(#clip0_12531_1216)">
<path d="M8.60045 31.7123C8.60045 31.7123 -3.35243 9.4512 29.5582 2.93768C62.4688 -3.57403 81.5977 17.5678 78.7399 36.101C78.7399 36.101 74.6978 64.0922 56.8705 69.5893L53.8448 52.1971L48.3694 51.9209C48.3694 51.9209 36.05 25.8469 12.87 25.132C12.87 25.132 9.17093 29.4665 8.60045 31.7123Z" fill="#EFF8FF"/>
<path d="M74.1895 15.9484C69.3134 9.21284 61.6102 4.20494 52.4988 1.84722C43.3279 -0.524939 33.35 -0.0266764 24.4048 3.24813C15.2844 6.58794 9.33775 11.4785 6.72909 17.7844C3.47414 25.6519 6.69118 32.7377 6.83019 33.0356C6.91684 33.2215 7.04321 33.375 7.19486 33.4941C6.65688 35.8446 6.27596 38.7385 6.20556 42.2895C6.05933 49.7887 3.21959 54.1702 1.52261 56.7861C0.773413 57.9415 0.231823 58.7755 0.044072 59.6005C-0.250192 60.8823 1.02074 61.8896 3.12752 63.5577C3.91463 64.1806 5.21986 65.215 5.47983 65.6302C5.78673 66.8019 6.17848 68.1197 6.59189 69.5134C7.583 72.8514 8.7077 76.6335 8.97308 79.4787C9.09403 80.7713 9.65006 81.9898 10.8452 82.4935C17.9635 85.4975 26.8401 84.2447 27.833 83.9396C29.0733 85.9723 32.386 92.049 31.5194 98.187C31.422 98.8784 31.904 99.5175 32.5936 99.615C32.6532 99.624 32.7128 99.6276 32.7723 99.6276C33.3915 99.6276 33.9331 99.1709 34.0216 98.5408C34.9441 92.0038 31.6765 85.4831 30.0878 82.7769C32.117 82.0927 33.4764 81.562 33.5739 81.5241C34.2238 81.2695 34.5433 80.5366 34.2888 79.8867C34.0342 79.2368 33.2255 78.7746 32.6514 79.1718C29.938 81.0511 26.3707 81.8581 23.0039 82.0675C18.339 82.3563 13.9864 81.4627 12.1685 80.3434C11.7388 80.0798 11.5348 79.7513 11.4879 79.2458C11.199 76.1551 10.0364 72.2448 9.01279 68.7967C8.59758 67.3976 8.20402 66.0761 7.90615 64.9316C7.6534 63.9585 6.57564 63.0685 4.69452 61.5791C4.01753 61.043 3.0517 60.2775 2.63468 59.8316C2.83687 59.4056 3.23223 58.799 3.64384 58.1635C5.48705 55.3202 8.57411 50.5596 8.73297 42.3401C8.98571 29.4087 13.5116 26.2242 13.5567 26.1935L13.5387 26.2043L13.2968 25.8162C14.3583 25.7422 17.9671 25.6808 22.993 27.6197C28.5949 29.7806 37.0725 34.9293 45.6549 47.1837C45.7958 47.3841 46.0196 47.4924 46.2471 47.4924C46.3897 47.4924 46.5341 47.4509 46.6605 47.3624C46.9872 47.1331 47.0667 46.6836 46.8374 46.3569C38.0474 33.8046 29.3007 28.5079 23.513 26.2747C19.1712 24.5994 15.8242 24.3376 14.0857 24.3449C15.2447 22.776 18.9708 19.5464 30.6042 17.3656C30.9959 17.2916 31.2541 16.9142 31.1801 16.5225C31.106 16.1307 30.7287 15.8708 30.337 15.9466C23.2855 17.2681 18.1115 19.1348 14.9594 21.4943C13.3852 22.6731 12.6902 23.713 12.3869 24.3557L12.2028 24.0596C12.0619 24.1463 10.0292 25.4714 8.3665 29.6597C7.75811 27.2063 7.27068 23.0902 9.06515 18.7502C11.3922 13.1249 16.846 8.70916 25.2749 5.6221C42.5444 -0.701858 62.6933 4.37464 72.1423 17.4306C81.1778 29.9142 78.5818 46.9165 65.0186 64.0813C64.5853 64.6283 64.6792 65.4244 65.2262 65.8559C65.4573 66.04 65.7353 66.1285 66.0079 66.1285C66.3816 66.1285 66.7517 65.9642 67.0008 65.6483C74.5614 56.0802 78.8706 46.68 79.8094 37.7095C80.647 29.7102 78.7027 22.1857 74.1877 15.9484H74.1895Z" fill="#484774"/>
<path d="M58.1288 69.703C58.1919 69.0115 57.6829 68.3977 56.9914 68.3309C56.2964 68.2605 55.679 68.7732 55.6122 69.4683C55.5797 69.7986 54.9406 77.7763 64.2469 96.4015C64.469 96.8438 64.9149 97.1002 65.3788 97.1002C65.5684 97.1002 65.7616 97.0568 65.9421 96.9666C66.5667 96.6543 66.8195 95.896 66.5072 95.2714C57.6287 77.5 58.1197 69.8131 58.1288 69.7012V69.703Z" fill="#484774"/>
<path d="M18.5243 49.0269C18.1235 50.0939 17.2461 50.8738 16.1178 51.1662C14.874 51.4894 13.5525 51.1409 12.9044 50.3195C12.5776 49.9079 12.083 49.9549 11.7977 50.426C11.5125 50.8972 11.545 51.6121 11.8718 52.0255C12.648 53.0076 13.872 53.5546 15.1809 53.5546C15.5816 53.5546 15.9896 53.5041 16.3958 53.3976C17.9953 52.9823 19.2753 51.7836 19.9035 50.1065C20.1093 49.5559 19.9685 48.8681 19.5876 48.5702C19.2067 48.2723 18.7301 48.4763 18.5243 49.0269Z" fill="#484774"/>
<path d="M46.2462 65.948C45.7173 65.948 45.2551 65.5616 45.1757 65.0219C45.089 64.4297 45.497 63.8791 46.0891 63.7924C46.165 63.7816 53.7057 62.6009 54.8611 57.9523C55.2727 56.295 55.1572 54.1395 53.9693 53.0636C52.6677 51.8847 50.4056 52.3469 48.7339 52.9408C48.1707 53.1412 47.5514 52.8469 47.3492 52.2837C47.1489 51.7204 47.4431 51.1012 48.0064 50.899C52.0412 49.462 54.2653 50.4098 55.4225 51.4568C57.4011 53.2495 57.4896 56.3582 56.9625 58.474C55.4568 64.5326 46.7734 65.8794 46.4033 65.9335C46.3491 65.9408 46.2968 65.9462 46.2444 65.9462L46.2462 65.948Z" fill="#484774"/>
<path d="M10.1211 53.5527C10.1211 53.5527 10.7656 56.8528 15.8024 56.6109" stroke="#484774" stroke-width="1.5" stroke-miterlimit="10" stroke-linecap="round"/>
<path d="M12.9609 65.948C12.9609 65.948 18.3281 69.4972 17.9436 75.4818" stroke="#484774" stroke-width="1.5" stroke-miterlimit="10" stroke-linecap="round"/>
</g>
<defs>
<clipPath id="clip0_12531_1216">
<rect width="80" height="99.2589" fill="white" transform="translate(0 0.370483)"/>
</clipPath>
</defs>
</svg>
