<?xml version="1.0" encoding="UTF-8"?> <svg xmlns="http://www.w3.org/2000/svg" width="128" height="128" viewBox="0 0 128 128" fill="none"><mask id="mask0" maskUnits="userSpaceOnUse" x="0" y="0" width="128" height="128"><path d="M64 128C99.3462 128 128 99.3462 128 64C128 28.6538 99.3462 0 64 0C28.6538 0 0 28.6538 0 64C0 99.3462 28.6538 128 64 128Z" fill="white"></path></mask><g mask="url(#mask0)"><path d="M48.7002 61C50.9093 61 52.7002 59.2091 52.7002 57C52.7002 54.7909 50.9093 53 48.7002 53C46.4911 53 44.7002 54.7909 44.7002 57C44.7002 59.2091 46.4911 61 48.7002 61Z" stroke="#EAA098" stroke-miterlimit="10" stroke-dasharray="1 1"></path><path d="M80.7002 61C82.9093 61 84.7002 59.2091 84.7002 57C84.7002 54.7909 82.9093 53 80.7002 53C78.4911 53 76.7002 54.7909 76.7002 57C76.7002 59.2091 78.4911 61 80.7002 61Z" stroke="#EAA098" stroke-miterlimit="10" stroke-dasharray="1 1"></path><path d="M16.7002 61C18.9093 61 20.7002 59.2091 20.7002 57C20.7002 54.7909 18.9093 53 16.7002 53C14.4911 53 12.7002 54.7909 12.7002 57C12.7002 59.2091 14.4911 61 16.7002 61Z" stroke="#EAA098" stroke-miterlimit="10" stroke-dasharray="1 1"></path><path d="M112.7 61C114.909 61 116.7 59.2091 116.7 57C116.7 54.7909 114.909 53 112.7 53C110.491 53 108.7 54.7909 108.7 57C108.7 59.2091 110.491 61 112.7 61Z" stroke="#EAA098" stroke-miterlimit="10" stroke-dasharray="1 1"></path><path d="M64.7002 45C66.9093 45 68.7002 43.2091 68.7002 41C68.7002 38.7909 66.9093 37 64.7002 37C62.4911 37 60.7002 38.7909 60.7002 41C60.7002 43.2091 62.4911 45 64.7002 45Z" stroke="#EAA098" stroke-miterlimit="10" stroke-dasharray="1 1"></path><path d="M96.7002 45C98.9093 45 100.7 43.2091 100.7 41C100.7 38.7909 98.9093 37 96.7002 37C94.4911 37 92.7002 38.7909 92.7002 41C92.7002 43.2091 94.4911 45 96.7002 45Z" stroke="#EAA098" stroke-miterlimit="10" stroke-dasharray="1 1"></path><path d="M0.700195 45C2.90933 45 4.7002 43.2091 4.7002 41C4.7002 38.7909 2.90933 37 0.700195 37C-1.50894 37 -3.2998 38.7909 -3.2998 41C-3.2998 43.2091 -1.50894 45 0.700195 45Z" stroke="#EAA098" stroke-miterlimit="10" stroke-dasharray="1 1"></path><path d="M32.7002 45C34.9093 45 36.7002 43.2091 36.7002 41C36.7002 38.7909 34.9093 37 32.7002 37C30.4911 37 28.7002 38.7909 28.7002 41C28.7002 43.2091 30.4911 45 32.7002 45Z" stroke="#EAA098" stroke-miterlimit="10" stroke-dasharray="1 1"></path><path d="M128.7 45C130.909 45 132.7 43.2091 132.7 41C132.7 38.7909 130.909 37 128.7 37C126.491 37 124.7 38.7909 124.7 41C124.7 43.2091 126.491 45 128.7 45Z" stroke="#EAA098" stroke-miterlimit="10" stroke-dasharray="1 1"></path><path d="M48.7002 29C50.9093 29 52.7002 27.2091 52.7002 25C52.7002 22.7909 50.9093 21 48.7002 21C46.4911 21 44.7002 22.7909 44.7002 25C44.7002 27.2091 46.4911 29 48.7002 29Z" stroke="#EAA098" stroke-miterlimit="10" stroke-dasharray="1 1"></path><path d="M80.7002 29C82.9093 29 84.7002 27.2091 84.7002 25C84.7002 22.7909 82.9093 21 80.7002 21C78.4911 21 76.7002 22.7909 76.7002 25C76.7002 27.2091 78.4911 29 80.7002 29Z" stroke="#EAA098" stroke-miterlimit="10" stroke-dasharray="1 1"></path><path d="M16.7002 29C18.9093 29 20.7002 27.2091 20.7002 25C20.7002 22.7909 18.9093 21 16.7002 21C14.4911 21 12.7002 22.7909 12.7002 25C12.7002 27.2091 14.4911 29 16.7002 29Z" stroke="#EAA098" stroke-miterlimit="10" stroke-dasharray="1 1"></path><path d="M112.7 29C114.909 29 116.7 27.2091 116.7 25C116.7 22.7909 114.909 21 112.7 21C110.491 21 108.7 22.7909 108.7 25C108.7 27.2091 110.491 29 112.7 29Z" stroke="#EAA098" stroke-miterlimit="10" stroke-dasharray="1 1"></path><path d="M64.7002 13C66.9093 13 68.7002 11.2091 68.7002 9C68.7002 6.79086 66.9093 5 64.7002 5C62.4911 5 60.7002 6.79086 60.7002 9C60.7002 11.2091 62.4911 13 64.7002 13Z" stroke="#EAA098" stroke-miterlimit="10" stroke-dasharray="1 1"></path><path d="M96.7002 13C98.9093 13 100.7 11.2091 100.7 9C100.7 6.79086 98.9093 5 96.7002 5C94.4911 5 92.7002 6.79086 92.7002 9C92.7002 11.2091 94.4911 13 96.7002 13Z" stroke="#EAA098" stroke-miterlimit="10" stroke-dasharray="1 1"></path><path d="M0.700195 13C2.90933 13 4.7002 11.2091 4.7002 9C4.7002 6.79086 2.90933 5 0.700195 5C-1.50894 5 -3.2998 6.79086 -3.2998 9C-3.2998 11.2091 -1.50894 13 0.700195 13Z" stroke="#EAA098" stroke-miterlimit="10" stroke-dasharray="1 1"></path><path d="M32.7002 13C34.9093 13 36.7002 11.2091 36.7002 9C36.7002 6.79086 34.9093 5 32.7002 5C30.4911 5 28.7002 6.79086 28.7002 9C28.7002 11.2091 30.4911 13 32.7002 13Z" stroke="#EAA098" stroke-miterlimit="10" stroke-dasharray="1 1"></path><path d="M128.7 13C130.909 13 132.7 11.2091 132.7 9C132.7 6.79086 130.909 5 128.7 5C126.491 5 124.7 6.79086 124.7 9C124.7 11.2091 126.491 13 128.7 13Z" stroke="#EAA098" stroke-miterlimit="10" stroke-dasharray="1 1"></path><path d="M64.7002 77C66.9093 77 68.7002 75.2091 68.7002 73C68.7002 70.7909 66.9093 69 64.7002 69C62.4911 69 60.7002 70.7909 60.7002 73C60.7002 75.2091 62.4911 77 64.7002 77Z" stroke="#EAA098" stroke-miterlimit="10" stroke-dasharray="1 1"></path><path d="M96.7002 77C98.9093 77 100.7 75.2091 100.7 73C100.7 70.7909 98.9093 69 96.7002 69C94.4911 69 92.7002 70.7909 92.7002 73C92.7002 75.2091 94.4911 77 96.7002 77Z" stroke="#EAA098" stroke-miterlimit="10" stroke-dasharray="1 1"></path><path d="M0.700195 77C2.90933 77 4.7002 75.2091 4.7002 73C4.7002 70.7909 2.90933 69 0.700195 69C-1.50894 69 -3.2998 70.7909 -3.2998 73C-3.2998 75.2091 -1.50894 77 0.700195 77Z" stroke="#EAA098" stroke-miterlimit="10" stroke-dasharray="1 1"></path><path d="M32.7002 77C34.9093 77 36.7002 75.2091 36.7002 73C36.7002 70.7909 34.9093 69 32.7002 69C30.4911 69 28.7002 70.7909 28.7002 73C28.7002 75.2091 30.4911 77 32.7002 77Z" stroke="#EAA098" stroke-miterlimit="10" stroke-dasharray="1 1"></path><path d="M128.7 77C130.909 77 132.7 75.2091 132.7 73C132.7 70.7909 130.909 69 128.7 69C126.491 69 124.7 70.7909 124.7 73C124.7 75.2091 126.491 77 128.7 77Z" stroke="#EAA098" stroke-miterlimit="10" stroke-dasharray="1 1"></path><path d="M48.7002 93C50.9093 93 52.7002 91.2091 52.7002 89C52.7002 86.7909 50.9093 85 48.7002 85C46.4911 85 44.7002 86.7909 44.7002 89C44.7002 91.2091 46.4911 93 48.7002 93Z" stroke="#EAA098" stroke-miterlimit="10" stroke-dasharray="1 1"></path><path d="M80.7002 93C82.9093 93 84.7002 91.2091 84.7002 89C84.7002 86.7909 82.9093 85 80.7002 85C78.4911 85 76.7002 86.7909 76.7002 89C76.7002 91.2091 78.4911 93 80.7002 93Z" stroke="#EAA098" stroke-miterlimit="10" stroke-dasharray="1 1"></path><path d="M16.7002 93C18.9093 93 20.7002 91.2091 20.7002 89C20.7002 86.7909 18.9093 85 16.7002 85C14.4911 85 12.7002 86.7909 12.7002 89C12.7002 91.2091 14.4911 93 16.7002 93Z" stroke="#EAA098" stroke-miterlimit="10" stroke-dasharray="1 1"></path><path d="M112.7 93C114.909 93 116.7 91.2091 116.7 89C116.7 86.7909 114.909 85 112.7 85C110.491 85 108.7 86.7909 108.7 89C108.7 91.2091 110.491 93 112.7 93Z" stroke="#EAA098" stroke-miterlimit="10" stroke-dasharray="1 1"></path><path d="M64.7002 109C66.9093 109 68.7002 107.209 68.7002 105C68.7002 102.791 66.9093 101 64.7002 101C62.4911 101 60.7002 102.791 60.7002 105C60.7002 107.209 62.4911 109 64.7002 109Z" stroke="#EAA098" stroke-miterlimit="10" stroke-dasharray="1 1"></path><path d="M96.7002 109C98.9093 109 100.7 107.209 100.7 105C100.7 102.791 98.9093 101 96.7002 101C94.4911 101 92.7002 102.791 92.7002 105C92.7002 107.209 94.4911 109 96.7002 109Z" stroke="#EAA098" stroke-miterlimit="10" stroke-dasharray="1 1"></path><path d="M0.700195 109C2.90933 109 4.7002 107.209 4.7002 105C4.7002 102.791 2.90933 101 0.700195 101C-1.50894 101 -3.2998 102.791 -3.2998 105C-3.2998 107.209 -1.50894 109 0.700195 109Z" stroke="#EAA098" stroke-miterlimit="10" stroke-dasharray="1 1"></path><path d="M32.7002 109C34.9093 109 36.7002 107.209 36.7002 105C36.7002 102.791 34.9093 101 32.7002 101C30.4911 101 28.7002 102.791 28.7002 105C28.7002 107.209 30.4911 109 32.7002 109Z" stroke="#EAA098" stroke-miterlimit="10" stroke-dasharray="1 1"></path><path d="M128.7 109C130.909 109 132.7 107.209 132.7 105C132.7 102.791 130.909 101 128.7 101C126.491 101 124.7 102.791 124.7 105C124.7 107.209 126.491 109 128.7 109Z" stroke="#EAA098" stroke-miterlimit="10" stroke-dasharray="1 1"></path><path d="M48.7002 125C50.9093 125 52.7002 123.209 52.7002 121C52.7002 118.791 50.9093 117 48.7002 117C46.4911 117 44.7002 118.791 44.7002 121C44.7002 123.209 46.4911 125 48.7002 125Z" stroke="#EAA098" stroke-miterlimit="10" stroke-dasharray="1 1"></path><path d="M80.7002 125C82.9093 125 84.7002 123.209 84.7002 121C84.7002 118.791 82.9093 117 80.7002 117C78.4911 117 76.7002 118.791 76.7002 121C76.7002 123.209 78.4911 125 80.7002 125Z" stroke="#EAA098" stroke-miterlimit="10" stroke-dasharray="1 1"></path><path d="M16.7002 125C18.9093 125 20.7002 123.209 20.7002 121C20.7002 118.791 18.9093 117 16.7002 117C14.4911 117 12.7002 118.791 12.7002 121C12.7002 123.209 14.4911 125 16.7002 125Z" stroke="#EAA098" stroke-miterlimit="10" stroke-dasharray="1 1"></path><path d="M112.7 125C114.909 125 116.7 123.209 116.7 121C116.7 118.791 114.909 117 112.7 117C110.491 117 108.7 118.791 108.7 121C108.7 123.209 110.491 125 112.7 125Z" stroke="#EAA098" stroke-miterlimit="10" stroke-dasharray="1 1"></path><path d="M64 128C99.3462 128 128 99.3462 128 64C128 28.6538 99.3462 0 64 0C28.6538 0 0 28.6538 0 64C0 99.3462 28.6538 128 64 128Z" stroke="#EAA098" stroke-width="2" stroke-miterlimit="10"></path></g></svg> 