<svg width="30" height="30" viewBox="0 0 30 30" fill="none" xmlns="http://www.w3.org/2000/svg">
<path d="M13.1228 2.50024C14.6866 2.50024 16.1728 2.83774 17.5091 3.44524C16.8643 4.01706 16.4361 4.79352 16.2966 5.64399C14.6893 4.96198 12.9051 4.81586 11.2082 5.22731C9.51138 5.63875 7.99221 6.58586 6.8758 7.92831C5.75938 9.27076 5.10512 10.9371 5.00993 12.6805C4.91474 14.424 5.3837 16.1517 6.34732 17.6077C7.31095 19.0637 8.71797 20.1706 10.3599 20.7643C12.0019 21.358 13.7914 21.407 15.4634 20.9041C17.1354 20.4011 18.6009 19.3729 19.6428 17.9718C20.6847 16.5707 21.2475 14.8713 21.2478 13.1252L21.2416 12.789C21.9116 13.389 22.7903 13.7452 23.7303 13.7502C23.6061 15.9196 22.8165 17.998 21.4691 19.7027L26.0341 24.2677C26.2618 24.5035 26.3878 24.8193 26.3849 25.147C26.3821 25.4747 26.2506 25.7883 26.0189 26.02C25.7871 26.2518 25.4736 26.3832 25.1458 26.3861C24.8181 26.3889 24.5024 26.2629 24.2666 26.0352L19.7016 21.4702C18.3709 22.5189 16.8088 23.2342 15.1455 23.5564C13.4822 23.8785 11.766 23.7983 10.14 23.3223C8.51406 22.8464 7.02548 21.9885 5.79848 20.8202C4.57148 19.652 3.64164 18.2072 3.08652 16.6066C2.53141 15.0059 2.36712 13.2957 2.60737 11.6186C2.84762 9.94148 3.48543 8.34616 4.4676 6.9657C5.44977 5.58524 6.74781 4.45966 8.25345 3.68286C9.75908 2.90607 11.4286 2.50059 13.1228 2.50024ZM13.1228 6.25024C14.2816 6.25024 15.3741 6.53774 16.3328 7.04399C16.4697 7.67575 16.7676 8.2614 17.1975 8.74411C17.6274 9.22683 18.1748 9.59021 18.7866 9.79899L19.2216 9.94774C19.9152 11.2785 20.1543 12.7996 19.9025 14.279C19.6506 15.7583 18.9217 17.1147 17.8269 18.141C16.7321 19.1673 15.3315 19.8072 13.839 19.9631C12.3465 20.1189 10.8439 19.7822 9.56072 19.0042C8.27749 18.2262 7.28406 17.0497 6.73203 15.6543C6.17999 14.2589 6.09969 12.7212 6.50336 11.2759C6.90704 9.83053 7.77252 8.55698 8.96773 7.64956C10.1629 6.74214 11.6222 6.2507 13.1228 6.25024ZM23.7478 1.25024C23.9817 1.25024 24.2109 1.31584 24.4093 1.43958C24.6077 1.56332 24.7675 1.74025 24.8703 1.95024L24.9303 2.09649L25.0928 2.56899C25.2644 3.07172 25.5407 3.53228 25.9036 3.92017C26.2665 4.30806 26.7076 4.61443 27.1978 4.81899L27.4291 4.90649L27.9016 5.06774C28.1356 5.14757 28.3406 5.29499 28.4909 5.49136C28.6411 5.68774 28.7297 5.92424 28.7454 6.17097C28.7612 6.41769 28.7035 6.66356 28.5795 6.87747C28.4556 7.09139 28.271 7.26374 28.0491 7.37274L27.9016 7.43274L27.4291 7.59524C26.9264 7.76675 26.4658 8.04309 26.0779 8.40599C25.69 8.76888 25.3837 9.21004 25.1791 9.70024L25.0916 9.93149L24.9303 10.404C24.8504 10.6379 24.7028 10.8429 24.5064 10.993C24.31 11.143 24.0734 11.2315 23.8267 11.2471C23.58 11.2628 23.3342 11.2049 23.1203 11.0809C22.9065 10.9568 22.7342 10.7722 22.6253 10.5502L22.5653 10.404L22.4028 9.93149C22.2313 9.42877 21.955 8.96821 21.5921 8.58032C21.2292 8.19243 20.7881 7.88606 20.2978 7.68149L20.0666 7.59399L19.5941 7.43274C19.3601 7.35292 19.155 7.2055 19.0048 7.00912C18.8546 6.81275 18.766 6.57625 18.7503 6.32952C18.7345 6.0828 18.7922 5.83693 18.9161 5.62302C19.0401 5.4091 19.2247 5.23675 19.4466 5.12774L19.5941 5.06774L20.0666 4.90524C20.5693 4.73374 21.0299 4.4574 21.4178 4.0945C21.8057 3.73161 22.112 3.29045 22.3166 2.80024L22.4041 2.56899L22.5653 2.09649C22.6496 1.84973 22.8088 1.63548 23.0209 1.48373C23.2329 1.33199 23.4871 1.25035 23.7478 1.25024Z" fill="#010F2B"/>
</svg>

