<?xml version="1.0" encoding="UTF-8"?><!DOCTYPE svg PUBLIC "-//W3C//DTD SVG 1.1//EN" "http://www.w3.org/Graphics/SVG/1.1/DTD/svg11.dtd"><svg xmlns="http://www.w3.org/2000/svg" xmlns:xlink="http://www.w3.org/1999/xlink"><symbol id="arrow-diagonal" viewBox="0 0 14 14"><g fill="none"><path d="M9.9 3.535a3 3 0 0 1-4.243 0m4.242 0a3 3 0 0 0 0 4.243m0-4.243L3.323 10.11" stroke="currentColor" stroke-linecap="round" fill="none"/></g></symbol><symbol id="arrow-down" viewBox="0 0 40 40"><g fill="none"><path d="M21 23.716a5 5 0 0 1 5-5m-5 5a5 5 0 0 0-5-5" stroke="currentColor" fill="none" stroke-linecap="round"/></g></symbol><symbol id="arrow-left" viewBox="0 0 60 60"><g fill="none"><path d="M41 30H21m-1 0a7 7 0 0 0 7-7m-7 7a7 7 0 0 1 7 7" fill="none" stroke="currentColor" stroke-linecap="round"/></g></symbol><symbol id="arrow-right" viewBox="0 0 60 60"><g fill="none"><path d="M19 30h20m1 0a7 7 0 0 1-7-7m7 7a7 7 0 0 0-7 7" fill="none" stroke="currentColor" stroke-linecap="round"/></g></symbol><symbol id="buy" viewBox="0 0 24 30"><g fill="none"><path display="var(--is-visible--sm-down)" d="M7.08 18.227a.375.375 0 0 1 .375-.352h9.09c.198 0 .362.154.375.352l.656 10.5a.375.375 0 0 1-.374.398H6.798a.375.375 0 0 1-.374-.398l.656-10.5Zm7.311-.646c0-1.545-1.043-2.331-2.33-2.331-1.288 0-2.332.786-2.332 2.331" stroke="currentColor" fill="none" stroke-width=".75"/><path display="var(--is-visible--md-xxl)" d="M5.44 14.469a.5.5 0 0 1 .5-.469h12.12a.5.5 0 0 1 .5.469l.875 14a.5.5 0 0 1-.5.531H5.066a.5.5 0 0 1-.5-.531l.875-14Zm9.748-.861c0-2.06-1.39-3.108-3.107-3.108s-3.108 1.048-3.108 3.108" stroke="currentColor" fill="none"/><path display="var(--is-visible--xxxl-up)" d="M1.94 6.469A.5.5 0 0 1 2.44 6h19.12a.5.5 0 0 1 .5.469l1.375 22a.5.5 0 0 1-.5.531H1.066a.5.5 0 0 1-.5-.531l1.375-22Zm14.843-.807C16.783 2.572 14.696 1 12.12 1 9.546 1 7.459 2.572 7.459 5.662" stroke="currentColor" fill="none"/></g></symbol><symbol id="certificate" viewBox="0 0 40 40"><path display="var(--is-visible--xxl-down)" d="m11.3 18.5 7.1 7.1c.8.8 2 .8 2.8 0l15.2-15.1" fill="none" stroke="#938E8D" stroke-linecap="round" stroke-linejoin="round"/><circle display="var(--is-visible--xxl-down)" cx="20" cy="20" r="19.5" fill="none" stroke="#C9C6C6"/><path display="var(--is-visible--xxxl-up)" d="m11.3 18.5 7.1 7.1c.8.8 2 .8 2.8 0l15.2-15.1" fill="none" stroke="#938E8D" stroke-linecap="round" stroke-linejoin="round" stroke-width=".75"/><circle display="var(--is-visible--xxxl-up)" cx="20" cy="20" r="19.5" fill="none" stroke="#C9C6C6" stroke-width=".75"/></symbol><symbol id="clingr-logo" viewBox="0 0 98 43"><g fill="none"><path d="M85.66 17.26c-.54-.4-1.3-.61-2.28-.61-3.23 0-4.56 4.12-4.56 6.9v9.67h-2.86V14.33h2.86v3.92c.65-2.28 2.83-4.25 4.99-4.25.79 0 1.41.09 1.85.25v3.01Zm-66 14.94c-1.95 1.06-4.38 1.58-7.28 1.58-7.76 0-12.39-5.67-12.39-13.17 0-4.1 1.25-7.49 3.75-10.16 3.88-4.12 10.83-5.17 15.91-2.91v3.13c-7.97-4.43-16.61.27-16.61 9.77s9.03 13.51 16.61 8.93v2.82l.01.01Zm3.25 1.14V5.38h2.84v27.95h-2.84v.01Zm7.26 0v-18.9h2.84v18.89h-2.84v.01Zm22.77 0h-2.86V22.55c0-4.09-1.49-6.05-4.47-6.13-3.02-.08-5.34 2.96-5.34 6.15v10.77h-2.86v-18.9h2.86v3.16c1.42-2.39 3.55-3.64 6.27-3.59 4.43.08 6.4 3.51 6.4 7.78v11.55Zm19.91-1.49c0 6.93-3.28 10.39-9.83 10.39-2.3 0-4.34-.45-6.13-1.35v-2.91c2.11 1.18 4.15 1.78 6.11 1.78 4.69 0 7.21-2.51 7.03-7.53l-.06-1.85c-1.3 2.46-3.67 3.42-6.54 3.42-5.32 0-7.82-4.42-7.82-9.28 0-5.46 2.56-10.49 8.63-10.49 2.56 0 4.55 1.03 5.79 3.09v-2.66h2.82v17.39Zm-2.82-9.88c0-3.05-2.35-5.54-5.43-5.54-4.51 0-6.09 3.95-6.09 7.87 0 3.51 1.71 7.07 5.66 7.07 3.69 0 5.87-3.86 5.87-6.53v-2.87h-.01ZM29.75 8.26c0-.54.19-.99.55-1.36.37-.36.81-.55 1.33-.55s1.01.19 1.37.56c.37.37.56.83.56 1.35 0 .52-.19 1-.56 1.35-.37.36-.83.54-1.37.54-.54 0-.96-.18-1.33-.53-.36-.36-.55-.81-.55-1.37v.01ZM94.93 0c.45 0 .9.12 1.33.35.43.23.77.57 1.01 1 .24.43.36.88.36 1.35 0 .47-.12.91-.36 1.34-.24.43-.57.76-1 1-.43.24-.88.36-1.34.36-.46 0-.92-.12-1.34-.36-.43-.24-.76-.57-1-1-.24-.43-.36-.88-.36-1.34 0-.46.12-.92.36-1.35.24-.43.58-.77 1.01-1 .43-.23.87-.35 1.33-.35Zm0 .45c-.38 0-.75.1-1.11.29-.36.19-.64.47-.84.83-.2.36-.3.74-.3 1.13 0 .39.1.76.3 1.12.2.36.48.64.84.83.36.2.73.3 1.12.3.39 0 .76-.1 1.12-.3.36-.2.64-.48.83-.83.2-.36.3-.73.3-1.12 0-.39-.1-.77-.3-1.13-.2-.36-.48-.64-.84-.83-.36-.19-.73-.29-1.11-.29h-.01ZM93.74 4.2h.47V2.97h.27c.16 0 .29.03.38.1.12.09.29.32.49.68l.26.46h.57l-.35-.57c-.17-.27-.31-.46-.43-.58a.664.664 0 0 0-.25-.15c.25-.02.45-.11.6-.27a.78.78 0 0 0 .23-.55c0-.15-.05-.29-.14-.43a.697.697 0 0 0-.37-.28c-.15-.05-.4-.08-.74-.08h-1v2.91l.01-.01Zm.47-1.63h.57c.27 0 .46-.04.56-.12.1-.08.15-.19.15-.32a.37.37 0 0 0-.07-.23.382.382 0 0 0-.2-.15 1.6 1.6 0 0 0-.47-.05h-.53v.88l-.01-.01Z" fill-rule="evenodd" clip-rule="evenodd" fill="currentColor"/></g></symbol><symbol id="clingr" viewBox="0 0 40 40"><path display="var(--is-visible--xxl-down)" d="M37.4 27.7H16c-.6 0-1-.4-1-1v-5.1c0-.6.4-1 1-1h18.9m3.7 4.6-4.4-5.6c-.9-1.2-2.3-2-3.7-2.3l-1.3-.3c-2.4-.5-4.6-1.7-6.4-3.4h0c-2.2-2.2-2.2-5.7 0-7.8l.9-.9c.1-.1.3-.1.4 0l15.1 14m-19.9 8.8h4.3l1.8 2.7c.4.7 0 1.6-.8 1.6h-6.2c-.8 0-1.3-.9-.8-1.6l1.7-2.7zM17.1 32h8.5m9.2 0h-2.3c-.8 0-1.3-.9-.8-1.6l1.8-2.7h3.9M31.3 32h3.4" fill="none" stroke="#938E8D" stroke-linecap="round"/><circle display="var(--is-visible--xxl-down)" cx="20" cy="20" r="19.5" fill="none" stroke="#C9C6C6"/><path display="var(--is-visible--xxxl-up)" d="M37.4 27.7H16c-.6 0-1-.4-1-1v-5.1c0-.6.4-1 1-1h18.9m3.7 4.6-4.4-5.6c-.9-1.2-2.3-2-3.7-2.3l-1.3-.3c-2.4-.5-4.6-1.7-6.4-3.4h0c-2.2-2.2-2.2-5.7 0-7.8l.9-.9c.1-.1.3-.1.4 0l15.1 14m-19.9 8.8h4.3l1.8 2.7c.4.7 0 1.6-.8 1.6h-6.2c-.8 0-1.3-.9-.8-1.6l1.7-2.7zM17.1 32h8.5m9.2 0h-2.3c-.8 0-1.3-.9-.8-1.6l1.8-2.7h3.9M31.3 32h3.4" fill="none" stroke="#938E8D" stroke-linecap="round" stroke-width=".75"/><circle display="var(--is-visible--xxxl-up)" cx="20" cy="20" r="19.5" fill="none" stroke="#C9C6C6" stroke-width=".75"/></symbol><symbol id="clock" viewBox="0 0 40 40"><g fill="none"><path display="var(--is-visible--xxl-down)" d="M20 15v3c0 1.1.9 2 2 2h3m-5 10c5.5 0 10-4.5 10-10s-4.5-10-10-10-10 4.5-10 10 4.5 10 10 10ZM15.5 1.2 15 11.5l.5-10.3ZM25 11.5l-.5-10.3.5 10.3Zm-9.5 27.6L15 28.5l.5 10.6ZM25 28.5l-.5 10.6.5-10.6Z" fill="none" stroke="currentColor" stroke-miterlimit="10"/><path display="var(--is-visible--xxl-down)" d="M20 39.5c10.77 0 19.5-8.73 19.5-19.5S30.77.5 20 .5.5 9.23.5 20 9.23 39.5 20 39.5Z" fill="none" stroke="#C4C4C4"/><path display="var(--is-visible--xxxl-up)" d="M20 15v3c0 1.1.9 2 2 2h3m-5 10c5.5 0 10-4.5 10-10s-4.5-10-10-10-10 4.5-10 10 4.5 10 10 10ZM15.5 1.2 15 11.5l.5-10.3ZM25 11.5l-.5-10.3.5 10.3Zm-9.5 27.6L15 28.5l.5 10.6ZM25 28.5l-.5 10.6.5-10.6Z" fill="none" stroke="currentColor" stroke-width=".75" stroke-miterlimit="10"/><path display="var(--is-visible--xxxl-up)" d="M20 39.5c10.77 0 19.5-8.73 19.5-19.5S30.77.5 20 .5.5 9.23.5 20 9.23 39.5 20 39.5Z" fill="none" stroke="#C4C4C4" stroke-width=".75"/></g></symbol><symbol id="close-modal" viewBox="0 0 27 27"><g fill="none"><path d="m.728 1.272 9.192 9.193a5 5 0 0 1 0 7.07L.728 26.728m25.544 0-9.192-9.192a5 5 0 0 1 0-7.071l9.192-9.193" fill="none" stroke="currentColor" stroke-width="1.5"/></g></symbol><symbol id="close-small" viewBox="0 0 30 30"><g fill="none"><path d="m11.64 11.64 1.238 1.238a3 3 0 0 1 0 4.243l-1.414 1.414m6.894-.177-1.237-1.237a3 3 0 0 1 0-4.243l1.414-1.414" stroke="currentColor" fill="none"/></g></symbol><symbol id="close" viewBox="0 0 40 41"><g fill="none"><circle cx="20" cy="20.284" r="20" fill="none"/><path d="m15.52 15.806 2.358 2.357a3 3 0 0 1 0 4.242l-2.593 2.593m9.193-.235-2.357-2.357a3 3 0 0 1 0-4.243l2.592-2.593" fill="none" stroke="currentColor"/></g></symbol><symbol id="distance" viewBox="0 0 40 40"><g fill="none"><circle display="var(--is-visible--xxl-down)" cx="20" cy="20" r="19.5" fill="none" stroke="#625B5A" opacity=".5"/><path display="var(--is-visible--xxl-down)" d="M10.263 29.431a.5.5 0 0 0 .5.5h4.5a.5.5 0 0 0 0-1h-4v-4a.5.5 0 1 0-1 0v4.5ZM29.93 10.764a.5.5 0 0 0-.5-.5h-4.5a.5.5 0 0 0 0 1h4v4a.5.5 0 1 0 1 0v-4.5Zm-18.813 19.02 18.666-18.666-.707-.707L10.41 29.077l.707.707Z" fill="#625B5A"/><circle display="var(--is-visible--xxxl-up)" cx="20" cy="20" r="19.5" fill="none" stroke="#625B5A" opacity=".5" stroke-width=".75"/><path display="var(--is-visible--xxxl-up)" d="M10.263 29.431a.5.5 0 0 0 .5.5h4.5a.5.5 0 0 0 0-1h-4v-4a.5.5 0 1 0-1 0v4.5ZM29.93 10.764a.5.5 0 0 0-.5-.5h-4.5a.5.5 0 0 0 0 1h4v4a.5.5 0 1 0 1 0v-4.5Zm-18.813 19.02 18.666-18.666-.707-.707L10.41 29.077l.707.707Z" fill="#625B5A"/></g></symbol><symbol id="door-desk" viewBox="0 0 40 40"><g fill="none"><path display="var(--is-visible--xxl-down)" d="M39 25H22c-.6 0-1 .4-1 1v2c0 .6.4 1 1 1h15.5m-10 9 1.5-9h-3l-.5 9.5" fill="none" stroke="currentColor"/><path display="var(--is-visible--xxl-down)" d="M28 24V10c0-.6-.4-1-1-1H13c-.6 0-1 .4-1 1v22" fill="none" stroke="currentColor"/><path display="var(--is-visible--xxl-down)" d="m26 21.5-.5-.5h-2" fill="none" stroke="currentColor" stroke-linecap="round"/><path display="var(--is-visible--xxl-down)" d="M20 39.5c10.77 0 19.5-8.73 19.5-19.5S30.77.5 20 .5.5 9.23.5 20 9.23 39.5 20 39.5Z" fill="none" stroke="#656675" opacity=".5"/><path display="var(--is-visible--xxxl-up)" d="M39 25H22c-.6 0-1 .4-1 1v2c0 .6.4 1 1 1h15.5m-10 9 1.5-9h-3l-.5 9.5" fill="none" stroke-width=".75" stroke="currentColor"/><path display="var(--is-visible--xxxl-up)" d="M28 24V10c0-.6-.4-1-1-1H13c-.6 0-1 .4-1 1v22" fill="none" stroke="currentColor" stroke-width=".75"/><path display="var(--is-visible--xxxl-up)" d="m26 21.5-.5-.5h-2" fill="none" stroke="currentColor" stroke-width=".75" stroke-linecap="round"/><path display="var(--is-visible--xxxl-up)" d="M20 39.5c10.77 0 19.5-8.73 19.5-19.5S30.77.5 20 .5.5 9.23.5 20 9.23 39.5 20 39.5Z" fill="none" stroke="#656675" stroke-width=".75" opacity=".5"/></g></symbol><symbol id="eye" viewBox="0 0 40 40"><g fill="none"><path display="var(--is-visible--xxl-down)" d="M37.1 29.4C34.2 30.9 30.8 32 27 32 16.8 32 9.3 24.1 6.9 21.1c-.5-.6-.5-1.6 0-2.2C9.3 15.9 16.8 8 27 8c3.8 0 7.2 1.1 10.1 2.6" fill="none" stroke="currentColor" stroke-miterlimit="10"/><path display="var(--is-visible--xxl-down)" d="M20 39.5c10.77 0 19.5-8.73 19.5-19.5S30.77.5 20 .5.5 9.23.5 20 9.23 39.5 20 39.5Z" fill="none" stroke="#C4C4C4"/><path display="var(--is-visible--xxl-down)" d="M27.5 23c4.1 0 7.5-3.4 7.5-7.5S31.6 8 27.5 8 20 11.4 20 15.5s3.4 7.5 7.5 7.5Z" fill="none" stroke="currentColor" stroke-miterlimit="10"/><path display="var(--is-visible--xxxl-up)" d="M37.1 29.4C34.2 30.9 30.8 32 27 32 16.8 32 9.3 24.1 6.9 21.1c-.5-.6-.5-1.6 0-2.2C9.3 15.9 16.8 8 27 8c3.8 0 7.2 1.1 10.1 2.6" fill="none" stroke="currentColor" stroke-miterlimit="10" stroke-width=".75"/><path display="var(--is-visible--xxxl-up)" d="M20 39.5c10.77 0 19.5-8.73 19.5-19.5S30.77.5 20 .5.5 9.23.5 20 9.23 39.5 20 39.5Z" fill="none" stroke="#C4C4C4" stroke-width=".75"/><path display="var(--is-visible--xxxl-up)" d="M27.5 23c4.1 0 7.5-3.4 7.5-7.5S31.6 8 27.5 8 20 11.4 20 15.5s3.4 7.5 7.5 7.5Z" fill="none" stroke="currentColor" stroke-miterlimit="10" stroke-width=".75"/></g></symbol><symbol id="fastening" viewBox="0 0 40 40"><g fill="none"><path display="var(--is-visible--xxl-down)" d="M14.7 21.8H11v3c0 .4.2.7.6.9l4.1 2.1c1.7.8 3.5 1.2 5.4 1.2h11.4v-9.4c0-.6-.4-1-1-1h-3.2c-.6 0-1 .4-1 1v4c0 .6-.4 1-1 1h-3.6c-.5 0-1.1-.1-1.6-.3l-4.8-2.1c-.5-.3-1.1-.4-1.6-.4Zm0-3.6H11v-3c0-.4.2-.7.6-.9l4.1-2.1c1.7-.8 3.5-1.2 5.4-1.2h11.4v6.4c0 .6-.4 1-1 1h-3.2c-.6 0-1-.4-1-1v-1c0-.6-.4-1-1-1h-3.6c-.5 0-1.1.1-1.6.3l-4.8 2.1c-.5.3-1.1.4-1.6.4Z" fill="none" stroke="#938E8D" stroke-linecap="round" stroke-linejoin="round"/><path display="var(--is-visible--xxl-down)" d="M37.3 29h-3.7c-.6 0-1.1-.4-1.1-1V12c0-.6.5-1 1.1-1h3.7" fill="none" stroke="#938E8D"/><path display="var(--is-visible--xxl-down)" d="M20 39.5c10.77 0 19.5-8.73 19.5-19.5S30.77.5 20 .5.5 9.23.5 20 9.23 39.5 20 39.5Z" fill="none" stroke="#C9C6C6"/><path display="var(--is-visible--xxxl-up)" d="M14.7 21.8H11v3c0 .4.2.7.6.9l4.1 2.1c1.7.8 3.5 1.2 5.4 1.2h11.4v-9.4c0-.6-.4-1-1-1h-3.2c-.6 0-1 .4-1 1v4c0 .6-.4 1-1 1h-3.6c-.5 0-1.1-.1-1.6-.3l-4.8-2.1c-.5-.3-1.1-.4-1.6-.4Zm0-3.6H11v-3c0-.4.2-.7.6-.9l4.1-2.1c1.7-.8 3.5-1.2 5.4-1.2h11.4v6.4c0 .6-.4 1-1 1h-3.2c-.6 0-1-.4-1-1v-1c0-.6-.4-1-1-1h-3.6c-.5 0-1.1.1-1.6.3l-4.8 2.1c-.5.3-1.1.4-1.6.4Z" fill="none" stroke="#938E8D" stroke-linecap="round" stroke-linejoin="round" stroke-width=".75"/><path display="var(--is-visible--xxxl-up)" d="M37.3 29h-3.7c-.6 0-1.1-.4-1.1-1V12c0-.6.5-1 1.1-1h3.7" fill="none" stroke="#938E8D" stroke-width=".75"/><path display="var(--is-visible--xxxl-up)" d="M20 39.5c10.77 0 19.5-8.73 19.5-19.5S30.77.5 20 .5.5 9.23.5 20 9.23 39.5 20 39.5Z" fill="none" stroke="#C9C6C6" stroke-width=".75"/></g></symbol><symbol id="hair" viewBox="0 0 40 40"><g fill="none"><path display="var(--is-visible--xxl-down)" d="M19.1 9.2c.2.5.5 1.9.5 4 0 2.6-.2 12.7 3.1 17.2 2.3 3.1 4.7 5.1 7.8 6m-4.4-17.1c.3 3.1 2.6 9.4 9.4 12.4M21 9.2c2.7-.6 9-.1 12 6.3 3.1 6.5 4 8.6 5.7 10.1M17.1 10.1c-.6.1-1.9.7-2.6 2-.9 1.7-.5 2.1-1.5 3.1-1 .9-2.2 1.2-2.6 1.8-.4.6-.4.7 0 1.5s.5 1.3 0 1.7c-.5.4-1 .5-1.1 1.1-.1.5-.3 1.4-.3 2 0 .7.8.5.8 1.2s-.3.9-.3 1.7c0 .7.4 1.5 1.6 1.5 1.2 0 4 .2 5.5.7 1.2.4 2.7 1.1 3.2 1.4" fill="none" stroke="currentColor" stroke-linecap="round" stroke-linejoin="round"/><path display="var(--is-visible--xxl-down)" d="M20 39.5c10.77 0 19.5-8.73 19.5-19.5S30.77.5 20 .5.5 9.23.5 20 9.23 39.5 20 39.5Z" fill="none" stroke="#C4C4C4"/><path display="var(--is-visible--xxxl-up)" d="M19.1 9.2c.2.5.5 1.9.5 4 0 2.6-.2 12.7 3.1 17.2 2.3 3.1 4.7 5.1 7.8 6m-4.4-17.1c.3 3.1 2.6 9.4 9.4 12.4M21 9.2c2.7-.6 9-.1 12 6.3 3.1 6.5 4 8.6 5.7 10.1M17.1 10.1c-.6.1-1.9.7-2.6 2-.9 1.7-.5 2.1-1.5 3.1-1 .9-2.2 1.2-2.6 1.8-.4.6-.4.7 0 1.5s.5 1.3 0 1.7c-.5.4-1 .5-1.1 1.1-.1.5-.3 1.4-.3 2 0 .7.8.5.8 1.2s-.3.9-.3 1.7c0 .7.4 1.5 1.6 1.5 1.2 0 4 .2 5.5.7 1.2.4 2.7 1.1 3.2 1.4" fill="none" stroke="currentColor" stroke-linecap="round" stroke-linejoin="round" stroke-width=".75"/><path display="var(--is-visible--xxxl-up)" d="M20 39.5c10.77 0 19.5-8.73 19.5-19.5S30.77.5 20 .5.5 9.23.5 20 9.23 39.5 20 39.5Z" fill="none" stroke="#C4C4C4" stroke-width=".75"/></g></symbol><symbol id="hairbrush" viewBox="0 0 40 40"><g fill="none"><path display="var(--is-visible--xxl-down)" d="M14 8.7h8.3c2 0 4.2 1.7 4.2 3.7v26" fill="none" stroke="currentColor"/><path display="var(--is-visible--xxl-down)" d="M14 28.5h8.5c2.2 0 4 1.8 4 4v5.9M23 12.7h-9m9 4h-9m9 4h-9m9 4h-9" fill="none" stroke="currentColor"/><path display="var(--is-visible--xxl-down)" d="M20 39.5c10.77 0 19.5-8.73 19.5-19.5S30.77.5 20 .5.5 9.23.5 20 9.23 39.5 20 39.5Z" fill="none" stroke="#C4C4C4"/><path display="var(--is-visible--xxxl-up)" d="M14 8.7h8.3c2 0 4.2 1.7 4.2 3.7v26" fill="none" stroke="currentColor" stroke-width=".75"/><path display="var(--is-visible--xxxl-up)" d="M14 28.5h8.5c2.2 0 4 1.8 4 4v5.9M23 12.7h-9m9 4h-9m9 4h-9m9 4h-9" fill="none" stroke="currentColor" stroke-width=".75"/><path display="var(--is-visible--xxxl-up)" d="M20 39.5c10.77 0 19.5-8.73 19.5-19.5S30.77.5 20 .5.5 9.23.5 20 9.23 39.5 20 39.5Z" fill="none" stroke="#C4C4C4" stroke-width=".75"/></g></symbol><symbol id="handbag" viewBox="0 0 40 40"><g fill="none"><path display="var(--is-visible--xxl-down)" d="M36.7 30h-18c-2.8 0-5-2.2-5-5v-.3c0-5 3.1-9.4 7.7-11.2l5.6-2.2c2.9-1.1 5.8-2 8.7-2.8" fill="none" stroke="#938E8D"/><path display="var(--is-visible--xxl-down)" d="M15 20.5 8.6 17l1.5-2.7 6.1 3.6" fill="none" stroke="#938E8D"/><path display="var(--is-visible--xxl-down)" d="M20 39.5c10.77 0 19.5-8.73 19.5-19.5S30.77.5 20 .5.5 9.23.5 20 9.23 39.5 20 39.5Z" fill="none" stroke="#C9C6C6"/><path display="var(--is-visible--xxxl-up)" d="M36.7 30h-18c-2.8 0-5-2.2-5-5v-.3c0-5 3.1-9.4 7.7-11.2l5.6-2.2c2.9-1.1 5.8-2 8.7-2.8" fill="none" stroke="#938E8D" stroke-width=".75"/><path display="var(--is-visible--xxxl-up)" d="M15 20.5 8.6 17l1.5-2.7 6.1 3.6" fill="none" stroke="#938E8D" stroke-width=".75"/><path display="var(--is-visible--xxxl-up)" d="M20 39.5c10.77 0 19.5-8.73 19.5-19.5S30.77.5 20 .5.5 9.23.5 20 9.23 39.5 20 39.5Z" fill="none" stroke="#C9C6C6" stroke-width=".75"/></g></symbol><symbol id="heart" viewBox="0 0 40 40"><g fill="none"><path display="var(--is-visible--xxl-down)" d="m23.2 38.9-9.8-9.8c-.8-.8-1.5-1.8-1.9-2.9-.4-1-.5-2.2-.5-3.4.1-1.2.4-2.3.9-3.3s1.2-1.9 2.1-2.7c.9-.7 1.9-1.3 3-1.6 1.1-.3 2.3-.4 3.4-.2s2.2.6 3.2 1.2 1.8 1.4 2.4 2.4c.3-.5.7-.9 1-1.3 1.5-1.5 3.6-2.4 5.8-2.4 2.2 0 4.3.9 5.8 2.4l.3.3" fill="none" stroke="currentColor" stroke-miterlimit="10" stroke-linecap="square"/><path display="var(--is-visible--xxl-down)" d="M20 39.5c10.77 0 19.5-8.73 19.5-19.5S30.77.5 20 .5.5 9.23.5 20 9.23 39.5 20 39.5Z" fill="none" stroke="#C4C4C4"/><path display="var(--is-visible--xxxl-up)" d="m23.2 38.9-9.8-9.8c-.8-.8-1.5-1.8-1.9-2.9-.4-1-.5-2.2-.5-3.4.1-1.2.4-2.3.9-3.3s1.2-1.9 2.1-2.7c.9-.7 1.9-1.3 3-1.6 1.1-.3 2.3-.4 3.4-.2s2.2.6 3.2 1.2 1.8 1.4 2.4 2.4c.3-.5.7-.9 1-1.3 1.5-1.5 3.6-2.4 5.8-2.4 2.2 0 4.3.9 5.8 2.4l.3.3" fill="none" stroke="currentColor" stroke-miterlimit="10" stroke-linecap="square" stroke-width=".75"/><path display="var(--is-visible--xxxl-up)" d="M20 39.5c10.77 0 19.5-8.73 19.5-19.5S30.77.5 20 .5.5 9.23.5 20 9.23 39.5 20 39.5Z" fill="none" stroke="#C4C4C4" stroke-width=".75"/></g></symbol><symbol id="heat" viewBox="0 0 40 40"><g fill="none"><path display="var(--is-visible--xxl-down)" d="M6.4 32.5h27.2M16 11c-.7.6-2 2.2-2 4.2 0 2.5 2 4.9 2 7.6 0 2.2-1.3 3.7-2 4.2m7-16c-.7.6-2 2.2-2 4.2 0 2.5 2 4.9 2 7.6 0 2.2-1.3 3.7-2 4.2m7-16c-.7.6-2 2.2-2 4.2 0 2.5 2 4.9 2 7.6 0 2.2-1.3 3.7-2 4.2" fill="none" stroke="currentColor" stroke-linecap="round"/><path display="var(--is-visible--xxl-down)" opacity=".5" d="M39.5 20c0 10.8-8.7 19.5-19.5 19.5S.5 30.8.5 20 9.2.5 20 .5 39.5 9.2 39.5 20Z" fill="none" stroke="currentColor"/><path display="var(--is-visible--xxxl-up)" d="M6.4 32.5h27.2M16 11c-.7.6-2 2.2-2 4.2 0 2.5 2 4.9 2 7.6 0 2.2-1.3 3.7-2 4.2m7-16c-.7.6-2 2.2-2 4.2 0 2.5 2 4.9 2 7.6 0 2.2-1.3 3.7-2 4.2m7-16c-.7.6-2 2.2-2 4.2 0 2.5 2 4.9 2 7.6 0 2.2-1.3 3.7-2 4.2" fill="none" stroke="currentColor" stroke-linecap="round" stroke-width=".75"/><path display="var(--is-visible--xxxl-up)" opacity=".5" d="M39.5 20c0 10.8-8.7 19.5-19.5 19.5S.5 30.8.5 20 9.2.5 20 .5 39.5 9.2 39.5 20Z" fill="none" stroke="#C4C4C4" stroke-width=".75"/></g></symbol><symbol id="info" viewBox="0 0 16 16"><g fill="none"><path display="var(--is-visible--md-up)" d="M7 11.522h2M8.004 11.523V7.465h-.996M7.95 4.597c0 .131-.097.238-.216.238-.12 0-.217-.107-.217-.238 0-.132.097-.24.217-.24M7.735 4.358c.12 0 .216.107.216.239" stroke="currentColor" stroke-linecap="round" stroke-linejoin="round"/><path display="var(--is-visible--sm-down)" d="M5.25 8.642h1.5M6 8.643V5.6h-.746M5.964 3.447c0 .099-.073.179-.163.179-.09 0-.162-.08-.162-.179 0-.099.073-.18.162-.18" stroke="currentColor" stroke-width=".75" stroke-linecap="round" stroke-linejoin="round"/><path display="var(--is-visible--sm-down)" d="M5.798 3.269c.09 0 .163.08.163.179" stroke="currentColor" stroke-width=".75" stroke-linecap="round" stroke-linejoin="round"/></g></symbol><symbol id="instagram" viewBox="0 0 24 24"><g fill="none"><path d="M18.465 4.31a1.226 1.226 0 1 0 0 2.451 1.226 1.226 0 0 0 0-2.451Z" fill="currentColor"/><path fill-rule="evenodd" clip-rule="evenodd" d="M12 5.926A6.082 6.082 0 0 0 5.926 12 6.082 6.082 0 0 0 12 18.074 6.082 6.082 0 0 0 18.074 12 6.082 6.082 0 0 0 12 5.926ZM7.3 12c0-2.602 2.098-4.7 4.7-4.7 2.602 0 4.7 2.098 4.7 4.7 0 2.602-2.098 4.7-4.7 4.7A4.692 4.692 0 0 1 7.3 12Z" fill="currentColor"/><path fill-rule="evenodd" clip-rule="evenodd" d="M7.152 0C3.208 0 0 3.208 0 7.152v9.697C0 20.792 3.208 24 7.152 24h9.697C20.792 24 24 20.792 24 16.849V7.152C24 3.208 20.792 0 16.849 0H7.152ZM1.374 7.152a5.77 5.77 0 0 1 5.778-5.778h9.697a5.77 5.77 0 0 1 5.777 5.778v9.697a5.77 5.77 0 0 1-5.778 5.777H7.153a5.77 5.77 0 0 1-5.778-5.778V7.153Z" fill="currentColor"/></g></symbol><symbol id="instruction" viewBox="0 0 40 40"><g fill="none"><path display="var(--is-visible--xxl-down)" d="M15.5 39V13.5h22.9m-16.9 8h15m-14.9 12h8.9m-8.9-8h14.9m-14.9 4h14.9" stroke="#938E8D" fill="none" stroke-linecap="round" stroke-linejoin="round"/><path display="var(--is-visible--xxl-down)" d="M20 39.5c10.77 0 19.5-8.73 19.5-19.5S30.77.5 20 .5.5 9.23.5 20 9.23 39.5 20 39.5Z" fill="none" stroke="#C9C6C6"/><path display="var(--is-visible--xxxl-up)" d="M15.5 39V13.5h22.9m-16.9 8h15m-14.9 12h8.9m-8.9-8h14.9m-14.9 4h14.9" stroke="#938E8D" fill="none" stroke-linecap="round" stroke-linejoin="round" stroke-width=".75"/><path display="var(--is-visible--xxxl-up)" d="M20 39.5c10.77 0 19.5-8.73 19.5-19.5S30.77.5 20 .5.5 9.23.5 20 9.23 39.5 20 39.5Z" fill="none" stroke="#C9C6C6" stroke-width=".75"/></g></symbol><symbol id="mirror" viewBox="0 0 40 40"><g fill="none"><circle display="var(--is-visible--xxl-down)" cx="20" cy="20" r="19.5" fill="none" stroke="#656675" opacity=".5"/><path display="var(--is-visible--xxl-down)" d="M38.5 13H17a1 1 0 0 0-1 1v25" fill="none" stroke="currentColor"/><path display="var(--is-visible--xxl-down)" d="m20 19 2-2m-2 6 6-6" fill="none" stroke="currentColor" stroke-linecap="round"/><circle display="var(--is-visible--xxxl-up)" cx="20" cy="20" r="19.5" fill="none" stroke="#656675" stroke-width=".75" opacity=".5"/><path display="var(--is-visible--xxxl-up)" d="M38.5 13H17a1 1 0 0 0-1 1v25" fill="none" stroke="currentColor" stroke-width=".75"/><path display="var(--is-visible--xxxl-up)" d="m20 19 2-2m-2 6 6-6" fill="none" stroke="currentColor" stroke-linecap="round" stroke-width=".75"/></g></symbol><symbol id="pause" viewBox="0 0 40 40"><g fill="none"><circle cx="20" cy="20" r="20" fill="none"/><path fill-rule="evenodd" clip-rule="evenodd" d="M16.5 12v16h1V12h-1Zm6 0v16h1V12h-1Z" fill="currentColor"/></g></symbol><symbol id="play-intro" viewBox="0 0 80 80"><g fill="none"><path display="var(--is-visible--sm-down)" d="m39.985 35.788 3.313 2.65a2 2 0 0 1 0 3.124l-3.313 2.65a1.382 1.382 0 0 1-2.082-.426 8.017 8.017 0 0 1 0-7.572 1.382 1.382 0 0 1 2.082-.426Z" fill="none" stroke="currentColor" stroke-linecap="round" stroke-linejoin="round"/><path display="var(--is-visible--md-xl)" d="m39.97 31.576 6.626 5.3a4 4 0 0 1 0 6.248l-6.627 5.3a2.764 2.764 0 0 1-4.163-.853 16.033 16.033 0 0 1 0-15.142 2.764 2.764 0 0 1 4.163-.853Z" fill="none" stroke="currentColor" stroke-linecap="round" stroke-linejoin="round"/><path display="var(--is-visible--xxl)" d="m39.97 31.576 6.626 5.3a4 4 0 0 1 0 6.248l-6.627 5.3a2.764 2.764 0 0 1-4.163-.853 16.033 16.033 0 0 1 0-15.142 2.764 2.764 0 0 1 4.163-.853Z" fill="none" stroke="currentColor" stroke-linecap="round" stroke-linejoin="round"/><path display="var(--is-visible--xxxl)" d="m39.96 28.767 10.136 8.11a4 4 0 0 1 0 6.246l-10.137 8.11a3.686 3.686 0 0 1-5.551-1.138 21.378 21.378 0 0 1 0-20.19 3.686 3.686 0 0 1 5.551-1.138Z" fill="none" stroke="currentColor" stroke-linecap="round" stroke-linejoin="round"/><path display="var(--is-visible--xxxxl-up)" d="m39.96 28.767 10.136 8.11a4 4 0 0 1 0 6.246l-10.137 8.11a3.686 3.686 0 0 1-5.551-1.138 21.378 21.378 0 0 1 0-20.19 3.686 3.686 0 0 1 5.551-1.138Z" fill="none" stroke="currentColor" stroke-linecap="round" stroke-linejoin="round"/></g></symbol><symbol id="play-small" viewBox="0 0 40 40"><g fill="none"><path d="m19.402 13.45 4.422 3.368c2.101 1.601 2.101 4.763 0 6.364l-4.422 3.369a2.08 2.08 0 0 1-3.074-.635 12.067 12.067 0 0 1 0-11.832 2.08 2.08 0 0 1 3.074-.635Z" stroke="currentColor" fill="none" stroke-linecap="round" stroke-linejoin="round"/></g></symbol><symbol id="play" viewBox="0 0 120 120"><g fill="none"><path d="m59.96 48.767 10.136 8.11a4 4 0 0 1 0 6.246l-10.137 8.11a3.686 3.686 0 0 1-5.551-1.138 21.378 21.378 0 0 1 0-20.19 3.686 3.686 0 0 1 5.551-1.138Z" stroke="currentColor" fill="none" stroke-width="1.5" stroke-linecap="round" stroke-linejoin="round"/></g></symbol><symbol id="plus" viewBox="0 0 40 40"><g fill="none"><circle cx="20.284" cy="20.284" r="20" fill="none"/><path d="M20.284 13.95v3.334a3 3 0 0 1-3 3h-3.667m6.667 6.333v-3.333a3 3 0 0 1 3-3h3.666" fill="none" stroke="currentColor"/></g></symbol><symbol id="portmanteau-xxxl" viewBox="0 0 40 40"><g fill="none"><path d="M5.5 33V22.5c0-1.1.9-2 2-2h25c1.1 0 2 .9 2 2V33m-24-12.6V37m19-16.9v17m-6-16.7v-1.9c0-.6-.4-1-1-1h-5c-.6 0-1 .4-1 1v1.9h7Z" fill="none" stroke="currentColor" stroke-width=".75"/><path d="M20 39.5c10.77 0 19.5-8.73 19.5-19.5S30.77.5 20 .5.5 9.23.5 20 9.23 39.5 20 39.5Z" fill="none" stroke="#C4C4C4" stroke-width=".75"/></g></symbol><symbol id="portmanteau" viewBox="0 0 40 40"><g fill="none"><path d="M5.5 33V22.5c0-1.1.9-2 2-2h25c1.1 0 2 .9 2 2V33m-24-12.6V37m19-16.9v17m-6-16.7v-1.9c0-.6-.4-1-1-1h-5c-.6 0-1 .4-1 1v1.9h7Z" fill="none" stroke="currentColor"/><path d="M20 39.5c10.77 0 19.5-8.73 19.5-19.5S30.77.5 20 .5.5 9.23.5 20 9.23 39.5 20 39.5Z" fill="none" stroke="#C4C4C4"/></g></symbol><symbol id="rotate" viewBox="0 0 49 48"><g fill="none"><path d="M24 24.5h20a4 4 0 0 1 4 4v15a4 4 0 0 1-4 4H19M44.5 34v4M41.5 25v22" fill="none" stroke="#fff"/><rect x=".5" y=".5" width="47" height="23" rx="3.5" transform="matrix(0 1 1 0 0 0)" fill="none" stroke="#fff"/><path fill="none" stroke="#fff" d="M10 3.5h4M1 6.5h22M1 41.5h22"/><path d="M36 7h3a8 8 0 0 1 8 8v0M35 7a3 3 0 0 0 3-3" fill="none" stroke="#fff" stroke-linecap="round"/><path d="M35 7a3 3 0 0 1 3 3" fill="none" stroke="#fff" stroke-linecap="round"/></g></symbol><symbol id="select-arrow-right" viewBox="0 0 12 9"><g fill="none"><path d="M10.217 4.719a3 3 0 0 1-3-3m3 3a3 3 0 0 0-3 3m3-3h-9.3" stroke="#37384C" fill="none" stroke-linecap="round"/></g></symbol><symbol id="sound-off" viewBox="0 0 40 40"><g fill="none"><circle cx="20" cy="20" r="20" fill="none"/><path d="M24.857 16v-1.92a1 1 0 0 0-1.625-.78l-4.09 3.271h-3.428A1.714 1.714 0 0 0 14 18.286v3.428a1.714 1.714 0 0 0 1.714 1.715h1.715m7.428-2.929v5.42a1 1 0 0 1-1.625.78L21 24.914" stroke="currentColor" stroke-miterlimit="10" stroke-linecap="square" fill="none"/><path d="m13 28 16-16" stroke="currentColor"/></g></symbol><symbol id="sound-on" viewBox="0 0 40 40"><g fill="none"><circle cx="20" cy="20" r="20" fill="none"/><path d="M19.143 16.571h-3.429A1.714 1.714 0 0 0 14 18.286v3.428a1.714 1.714 0 0 0 1.714 1.715h3.429l4.09 3.271a1 1 0 0 0 1.624-.78V14.08a1 1 0 0 0-1.625-.78l-4.09 3.271Z" stroke="currentColor" stroke-miterlimit="10" stroke-linecap="square" fill="none"/></g></symbol><symbol id="spa" viewBox="0 0 40 40"><g fill="none"><path display="var(--is-visible--xxl-down)" d="m37.3 28.9-1.8 1.8c-.2.2-.4.3-.7.3h-5l9.6-9.4m-16.6-3h16.7m-25.8 3.3c-1.895 0-2.3 1.8-2.3 2.4 0 .6.4 2.3 2.7 2.3 1.4 0 2.5-.9 3-1.9.3-.6.3-1.4.2-2-.4-1.7-1.6-3.6-4.3-3.6-1.5 0-2.9.6-3.9 1.8m0 0c-.7.9-1.1 2-1.1 3.4 0 3.3 2.4 6.6 6.1 6.6h15.8m-20.8-10L21.3 8.7c.1-.1.2-.2.3-.2.5-.2 1.5-.5 2.5-.5 1.3 0 4 .6 4.2 4.2 0 .2-.1.5-.2.7-2.9 3.2-8.8 9.445-11.2 12.145" fill="none" stroke="currentColor"/><path display="var(--is-visible--xxl-down)" d="M20 39.5c10.77 0 19.5-8.73 19.5-19.5S30.77.5 20 .5.5 9.23.5 20 9.23 39.5 20 39.5Z" fill="none" stroke="#C4C4C4"/><path display="var(--is-visible--xxxl-up)" d="m37.3 28.9-1.8 1.8c-.2.2-.4.3-.7.3h-5l9.6-9.4m-16.6-3h16.7m-25.8 3.3c-1.895 0-2.3 1.8-2.3 2.4 0 .6.4 2.3 2.7 2.3 1.4 0 2.5-.9 3-1.9.3-.6.3-1.4.2-2-.4-1.7-1.6-3.6-4.3-3.6-1.5 0-2.9.6-3.9 1.8m0 0c-.7.9-1.1 2-1.1 3.4 0 3.3 2.4 6.6 6.1 6.6h15.8m-20.8-10L21.3 8.7c.1-.1.2-.2.3-.2.5-.2 1.5-.5 2.5-.5 1.3 0 4 .6 4.2 4.2 0 .2-.1.5-.2.7-2.9 3.2-8.8 9.445-11.2 12.145" fill="none" stroke="currentColor" stroke-width=".75"/><path display="var(--is-visible--xxxl-up)" d="M20 39.5c10.77 0 19.5-8.73 19.5-19.5S30.77.5 20 .5.5 9.23.5 20 9.23 39.5 20 39.5Z" fill="none" stroke="#C4C4C4" stroke-width=".75"/></g></symbol><symbol id="surface" viewBox="0 0 40 40"><g fill="none"><path display="var(--is-visible--xxl-down)" d="m37.1 10.6-4.1-2c-1.3-.7-2.9-.7-4.2-.1l-13.7 6.1c-.8.4-.8 1.5 0 1.8l13.7 6.1c1.4.6 2.9.6 4.2-.1l6.5-3.2m-21.4-1.5L15 19.1c-.8.4-.8 1.5 0 1.8L28.8 27c1.4.6 2.9.6 4.2-.1l6.1-3m-21-1.6-3 1.3c-.8.4-.8 1.5 0 1.8l13.7 6.1c1.4.6 2.9.6 4.2-.1l4.1-2" fill="none" stroke="currentColor"/><path display="var(--is-visible--xxl-down)" d="M20 39.5c10.77 0 19.5-8.73 19.5-19.5S30.77.5 20 .5.5 9.23.5 20 9.23 39.5 20 39.5Z" fill="none" stroke="#C4C4C4"/><path display="var(--is-visible--xxxl-up)" d="m37.1 10.6-4.1-2c-1.3-.7-2.9-.7-4.2-.1l-13.7 6.1c-.8.4-.8 1.5 0 1.8l13.7 6.1c1.4.6 2.9.6 4.2-.1l6.5-3.2m-21.4-1.5L15 19.1c-.8.4-.8 1.5 0 1.8L28.8 27c1.4.6 2.9.6 4.2-.1l6.1-3m-21-1.6-3 1.3c-.8.4-.8 1.5 0 1.8l13.7 6.1c1.4.6 2.9.6 4.2-.1l4.1-2" fill="none" stroke="currentColor" stroke-width=".75"/><path display="var(--is-visible--xxxl-up)" d="M20 39.5c10.77 0 19.5-8.73 19.5-19.5S30.77.5 20 .5.5 9.23.5 20 9.23 39.5 20 39.5Z" fill="none" stroke="#C4C4C4" stroke-width=".75"/></g></symbol><symbol id="telegram" viewBox="0 0 24 24"><g fill="none"><path d="M16.599 7.258c.062.006.128.017.197.033.132.031.327.096.507.24.323.259.392.601.414.728.02.12.046.369.024.594-.156 1.62-.822 5.489-1.157 7.257-.157.827-.557 1.559-1.36 1.632-.513.047-.932-.129-1.254-.315a6.176 6.176 0 0 1-.442-.29c-.139-.097-.257-.182-.384-.264-.452-.292-.806-.53-1.152-.763a82.71 82.71 0 0 0-1.111-.737c-.289-.188-.562-.418-.722-.72a1.152 1.152 0 0 1-.083-.908c-.442.28-.921.467-1.42.456-.271-.006-.605-.075-.893-.146-.306-.076-.626-.17-.895-.257-.26-.083-.635-.188-.896-.313a1.402 1.402 0 0 1-.485-.361 1.026 1.026 0 0 1-.228-.792c.05-.4.326-.651.506-.783.195-.143.437-.26.695-.364l3.694-1.581c.986-.42 1.728-.731 2.224-.935 1.403-.576 2.269-.922 2.833-1.124.551-.198.894-.29 1.218-.295l.17.008Z" fill="none" stroke="currentColor" stroke-width="1.5"/><path fill-rule="evenodd" clip-rule="evenodd" d="M7.152 0C3.208 0 0 3.208 0 7.152v9.697C0 20.792 3.208 24 7.152 24h9.697C20.792 24 24 20.792 24 16.849V7.152C24 3.208 20.792 0 16.849 0H7.152ZM1.374 7.152a5.77 5.77 0 0 1 5.778-5.778h9.697a5.77 5.77 0 0 1 5.777 5.778v9.697a5.77 5.77 0 0 1-5.777 5.777H7.152a5.77 5.77 0 0 1-5.778-5.777V7.152Z" fill="currentColor"/></g></symbol><symbol id="vi-circle" viewBox="0 0 24 24"><g fill="none"><circle cx="12" cy="12" r="11.4" fill="none" stroke="currentColor" stroke-width="1.2"/><path fill-rule="evenodd" clip-rule="evenodd" d="M15.442 8.25a1.25 1.25 0 1 0 0-2.5 1.25 1.25 0 0 0 0 2.5ZM7.625 9.5H5.75L8.875 17h1.88l3.125-7.5h-1.875l-2.19 5.256L7.625 9.5ZM16.38 17V9.5h-1.875V17h1.875Z" fill="currentColor"/></g></symbol><symbol id="vk" viewBox="0 0 25 24"><g fill="none"><path d="M12.461 13.827V8.73h1.17v3.25l.552-.058c.819-.085 1.601-.563 2.224-1.194a5.786 5.786 0 0 0 1.28-1.998h1.17c-.487 1.49-1.678 2.604-2.554 3.09l-.87.485.907.409c.881.397 2.25 1.378 2.96 3.097h-1.34c-.635-1.533-1.996-2.715-3.78-2.886l-.549-.052v2.935c-2.067-.051-3.648-.76-4.74-1.979-1.062-1.184-1.707-2.901-1.836-5.1H8.36c.214 3.522 1.922 5.209 3.484 5.584l.617.149v-.635ZM1.5 7.152A6.66 6.66 0 0 1 8.152.5h9.697A6.66 6.66 0 0 1 24.5 7.152v9.697a6.66 6.66 0 0 1-6.652 6.651H8.153A6.66 6.66 0 0 1 1.5 16.849V7.152ZM8.152.874a6.27 6.27 0 0 0-6.278 6.278v9.697a6.27 6.27 0 0 0 6.278 6.277h9.697a6.27 6.27 0 0 0 6.277-6.278V7.153A6.27 6.27 0 0 0 17.848.874H8.153Z" fill="currentColor" stroke="currentColor"/></g></symbol></svg>